<svg width="18" height="18" viewBox="0 0 18 18" fill="none" xmlns="http://www.w3.org/2000/svg">
    <path d="M3.16636 3.16588C2.77584 3.5564 2.77584 4.18957 3.16636 4.58009C3.55689 4.97062 4.19005 4.97062 4.58058 4.58009L3.16636 3.16588ZM3.3082 11.5861C3.07981 11.0832 2.48703 10.8607 1.98418 11.0891C1.48133 11.3175 1.25883 11.9103 1.48722 12.4131L3.3082 11.5861ZM0.75 16.249C0.75 16.8013 1.19772 17.249 1.75 17.249C2.30228 17.249 2.75 16.8013 2.75 16.249H0.75ZM6.25 12.749C6.80228 12.749 7.25 12.3013 7.25 11.749C7.25 11.1967 6.80228 10.749 6.25 10.749V12.749ZM4.58058 4.58009C7.02135 2.13932 10.9786 2.13932 13.4194 4.58009L14.8336 3.16588C11.6118 -0.0559443 6.38819 -0.0559443 3.16636 3.16588L4.58058 4.58009ZM13.4194 4.58009C15.8602 7.02087 15.8602 10.9781 13.4194 13.4189L14.8336 14.8331C18.0554 11.6113 18.0554 6.3877 14.8336 3.16588L13.4194 4.58009ZM13.4194 13.4189C10.9786 15.8597 7.02135 15.8597 4.58058 13.4189L3.16636 14.8331C6.38819 18.0549 11.6118 18.0549 14.8336 14.8331L13.4194 13.4189ZM4.58058 13.4189C4.0329 12.8712 3.60935 12.2491 3.3082 11.5861L1.48722 12.4131C1.88615 13.2915 2.44644 14.1132 3.16636 14.8331L4.58058 13.4189ZM2.75 16.249V12.749H0.75V16.249H2.75ZM2.75 12.749V10.749C1.64545 10.749 0.75 11.6444 0.75 12.749H2.75ZM2.75 12.749H6.25V10.749H2.75V12.749Z" fill="white"/>
</svg>
